<?xml version="1.0" encoding="UTF-8" standalone="no"?>
<svg width="567px" height="163px" viewBox="0 0 567 163" version="1.1" xmlns="http://www.w3.org/2000/svg" xmlns:xlink="http://www.w3.org/1999/xlink" xmlns:sketch="http://www.bohemiancoding.com/sketch/ns">
    <!-- Generator: Sketch 3.3.2 (12043) - http://www.bohemiancoding.com/sketch -->
    <title>Artboard 1</title>
    <desc>Created with Sketch.</desc>
    <defs></defs>
    <g id="Page-1" stroke="none" stroke-width="1" fill="none" fill-rule="evenodd" sketch:type="MSPage">
        <g id="Artboard-1" sketch:type="MSArtboardGroup" fill="#FFFFFF">
            <g id="Imported-Layers" sketch:type="MSLayerGroup">
                <path d="M264.144,107.78 L257.502,114.429 C255.54,116.393 252.974,117.45 250.106,117.45 L223.84,117.45 C220.972,117.45 218.556,116.544 216.443,114.429 L207.084,105.061 L215.386,96.751 L223.387,104.759 C223.99,105.363 224.745,105.665 225.5,105.665 L248.294,105.665 C249.049,105.665 249.804,105.363 250.408,104.759 L253.427,101.736 C254.031,101.133 254.332,100.074 254.332,99.319 L254.332,91.915 C254.332,90.404 253.125,89.045 251.615,88.894 L216.594,84.512 C211.31,83.756 207.084,79.374 207.084,74.086 L207.084,62.905 C207.084,59.883 208.291,57.314 210.254,55.199 L216.896,48.55 C219.009,46.435 221.424,45.528 224.293,45.528 L250.558,45.528 C253.427,45.528 255.993,46.435 257.955,48.55 L267.315,57.767 L259.012,66.229 L251.011,58.221 C250.408,57.616 249.653,57.314 248.898,57.314 L226.104,57.314 C225.349,57.314 224.594,57.616 223.99,58.221 L220.972,61.242 C220.368,61.847 220.066,62.451 220.066,63.358 L220.066,70.309 C220.066,71.819 221.273,73.18 222.783,73.33 L257.955,77.863 C263.088,78.468 267.315,83.001 267.315,88.289 L267.315,99.923 C267.315,103.097 266.258,105.665 264.144,107.78" id="Fill-1" sketch:type="MSShapeGroup"></path>
                <path d="M297.518,117.45 C294.65,117.45 292.235,116.544 290.121,114.429 L284.083,108.385 C281.819,106.118 280.913,103.549 280.913,100.528 L280.913,57.314 L269.29,57.314 L269.29,45.528 L280.762,45.528 L280.762,16.669 L293.744,16.669 L293.744,45.528 L317.595,45.528 L317.595,57.314 L293.744,57.314 L293.744,99.167 C293.744,100.074 294.046,101.133 294.65,101.736 L297.669,104.759 C298.273,105.363 299.028,105.665 299.782,105.665 L317.595,105.665 L317.595,117.45 L297.518,117.45" id="Fill-2" sketch:type="MSShapeGroup"></path>
                <path d="M370.797,74.237 L370.797,63.358 C370.797,62.451 370.345,61.847 369.892,61.242 L366.269,57.767 C365.665,57.163 364.91,56.71 364.155,56.71 L354.796,56.71 C354.042,56.71 353.136,57.163 352.532,57.616 L340.154,70.157 C339.55,70.762 339.248,71.367 339.248,72.273 L339.248,117.45 L326.266,117.45 L326.266,58.07 L323.247,45.528 L335.776,45.528 L338.342,56.71 L346.343,48.702 C348.456,46.586 351.022,45.528 353.891,45.528 L365.816,45.528 C368.835,45.528 371.25,46.435 373.213,48.55 L379.855,55.199 C381.968,57.314 383.176,59.883 383.176,62.905 L383.176,74.086 L370.797,74.237" id="Fill-3" sketch:type="MSShapeGroup"></path>
                <path d="M445.321,117.45 L437.321,109.442 L432.339,114.429 C430.226,116.393 427.81,117.45 424.943,117.45 L399.884,117.45 C397.016,117.45 394.6,116.544 392.487,114.429 L385.845,107.78 C383.731,105.665 382.675,103.097 382.675,100.074 L382.675,88.289 C382.675,85.268 383.731,82.699 385.845,80.583 L391.732,74.69 C393.845,72.575 396.412,71.517 399.28,71.517 L434.15,71.517 L434.15,63.358 C434.15,62.602 433.849,61.847 433.244,61.242 L430.226,58.221 C429.622,57.616 428.867,57.314 428.112,57.314 L400.94,57.314 C400.034,57.314 399.28,57.616 398.827,58.221 L393.242,63.811 L385.241,55.803 L392.487,48.55 C394.6,46.435 396.865,45.528 399.884,45.528 L429.773,45.528 C432.792,45.528 435.207,46.586 437.17,48.55 L443.811,55.199 C445.925,57.314 446.982,60.034 446.982,62.905 L446.982,101.133 C446.982,102.039 447.434,102.643 447.887,103.247 L453.775,108.99 L445.321,117.45 L445.321,117.45 Z M434.15,82.699 L401.695,82.699 C400.789,82.699 400.034,83.152 399.582,83.605 L396.562,86.627 C395.959,87.232 395.506,87.987 395.506,88.743 L395.506,99.621 C395.506,100.528 395.959,101.133 396.412,101.736 L399.431,104.759 C400.034,105.363 400.94,105.665 401.544,105.665 L423.131,105.665 C423.886,105.665 424.792,105.363 425.244,104.759 L433.244,96.902 C433.849,96.297 434.15,95.693 434.15,94.635 L434.15,82.699 L434.15,82.699 Z" id="Fill-4" sketch:type="MSShapeGroup"></path>
                <path d="M476.578,57.314 L476.578,117.45 L463.746,117.45 L463.746,57.314 L452.123,57.314 L452.123,45.528 L463.596,45.528 L463.596,33.743 C463.596,30.57 464.652,28.001 466.766,25.886 L472.955,19.691 C475.068,17.576 477.484,16.669 480.351,16.669 L500.429,16.669 L500.429,28.455 L482.616,28.455 C481.861,28.455 481.107,28.757 480.502,29.362 L477.484,32.383 C476.879,32.988 476.578,34.045 476.578,34.801 L476.578,45.528 L500.429,45.528 L500.429,57.314 L476.578,57.314" id="Fill-5" sketch:type="MSShapeGroup"></path>
                <path d="M515.49,84.663 L515.641,99.621 C515.641,100.528 515.942,101.133 516.395,101.736 L519.414,104.759 C520.018,105.363 520.773,105.665 521.528,105.665 L548.096,105.665 C548.851,105.665 549.606,105.363 550.209,104.759 L558.36,96.448 L566.814,104.759 L557.303,114.429 C555.191,116.544 552.775,117.45 549.907,117.45 L519.867,117.45 C516.998,117.45 514.584,116.544 512.47,114.429 L505.829,107.78 C503.715,105.665 502.658,103.097 502.658,100.074 L502.658,62.905 C502.658,60.034 503.715,57.314 505.829,55.199 L512.47,48.55 C514.584,46.435 516.998,45.528 519.867,45.528 L549.756,45.528 C552.624,45.528 555.191,46.435 557.153,48.55 L563.795,55.199 C565.908,57.314 566.964,59.883 566.964,62.905 L566.964,84.663 L515.49,84.663 L515.49,84.663 Z M554.134,63.358 C554.134,62.602 553.831,61.847 553.228,61.242 L550.209,58.221 C549.606,57.616 548.851,57.314 548.096,57.314 L521.679,57.314 C520.773,57.314 520.018,57.616 519.565,58.221 L516.546,61.242 C515.942,61.847 515.641,62.602 515.49,63.358 L515.49,73.33 L554.134,73.18 L554.134,63.358 L554.134,63.358 Z" id="Fill-6" sketch:type="MSShapeGroup"></path>
                <path d="M126.079,117.452 L162.044,81.487 L126.079,45.521 L117.005,54.595 L143.897,81.487 L117.005,108.378 L126.079,117.452" id="Fill-7" sketch:type="MSShapeGroup"></path>
                <path d="M81.04,0.483 L45.075,36.448 L54.148,45.521 L81.04,18.63 L107.931,45.521 L117.005,36.447 L81.04,0.483" id="Fill-8" fill-opacity="0.2" sketch:type="MSShapeGroup"></path>
                <path d="M45.075,108.378 L18.183,81.487 L45.075,54.595 L36.001,45.521 L0.035,81.487 L36.001,117.452 L45.075,108.378" id="Fill-9" sketch:type="MSShapeGroup"></path>
                <path d="M54.148,117.452 L45.075,126.526 L81.04,162.491 L117.005,126.526 L107.931,117.452 L81.04,144.343 L54.148,117.452" id="Fill-10" fill-opacity="0.2" sketch:type="MSShapeGroup"></path>
            </g>
        </g>
    </g>
</svg>