<?xml version="1.0" encoding="UTF-8" standalone="no"?>
<svg width="567px" height="163px" viewBox="0 0 567 163" version="1.1" xmlns="http://www.w3.org/2000/svg" xmlns:xlink="http://www.w3.org/1999/xlink" xmlns:sketch="http://www.bohemiancoding.com/sketch/ns">
    <!-- Generator: Sketch 3.3.2 (12043) - http://www.bohemiancoding.com/sketch -->
    <title>Artboard 1 Copy</title>
    <desc>Created with Sketch.</desc>
    <defs></defs>
    <g id="Page-1" stroke="none" stroke-width="1" fill="none" fill-rule="evenodd" sketch:type="MSPage">
        <g id="Artboard-1-Copy" sketch:type="MSArtboardGroup">
            <g id="Imported-Layers" sketch:type="MSLayerGroup">
                <path d="M264.144,107.307 L257.502,113.956 C255.54,115.92 252.974,116.977 250.106,116.977 L223.84,116.977 C220.972,116.977 218.556,116.071 216.443,113.956 L207.084,104.588 L215.386,96.278 L223.387,104.286 C223.99,104.891 224.745,105.192 225.5,105.192 L248.294,105.192 C249.049,105.192 249.804,104.891 250.408,104.286 L253.427,101.263 C254.031,100.66 254.332,99.601 254.332,98.847 L254.332,91.442 C254.332,89.931 253.125,88.572 251.615,88.421 L216.594,84.039 C211.31,83.283 207.084,78.902 207.084,73.613 L207.084,62.432 C207.084,59.41 208.291,56.841 210.254,54.726 L216.896,48.077 C219.009,45.962 221.424,45.055 224.293,45.055 L250.558,45.055 C253.427,45.055 255.993,45.962 257.955,48.077 L267.315,57.294 L259.012,65.756 L251.011,57.748 C250.408,57.143 249.653,56.841 248.898,56.841 L226.104,56.841 C225.349,56.841 224.594,57.143 223.99,57.748 L220.972,60.77 C220.368,61.374 220.066,61.979 220.066,62.885 L220.066,69.836 C220.066,71.346 221.273,72.707 222.783,72.858 L257.955,77.39 C263.088,77.995 267.315,82.528 267.315,87.816 L267.315,99.45 C267.315,102.624 266.258,105.192 264.144,107.307" id="Fill-1" fill="#191919" sketch:type="MSShapeGroup"></path>
                <path d="M297.518,116.977 C294.65,116.977 292.235,116.071 290.121,113.956 L284.083,107.912 C281.819,105.645 280.913,103.076 280.913,100.055 L280.913,56.841 L269.29,56.841 L269.29,45.055 L280.762,45.055 L280.762,16.196 L293.744,16.196 L293.744,45.055 L317.595,45.055 L317.595,56.841 L293.744,56.841 L293.744,98.695 C293.744,99.601 294.046,100.66 294.65,101.263 L297.669,104.286 C298.273,104.891 299.028,105.192 299.782,105.192 L317.595,105.192 L317.595,116.977 L297.518,116.977" id="Fill-2" fill="#191919" sketch:type="MSShapeGroup"></path>
                <path d="M370.797,73.764 L370.797,62.885 C370.797,61.979 370.345,61.374 369.892,60.77 L366.269,57.294 C365.665,56.69 364.91,56.237 364.155,56.237 L354.796,56.237 C354.042,56.237 353.136,56.69 352.532,57.143 L340.154,69.684 C339.55,70.289 339.248,70.894 339.248,71.8 L339.248,116.977 L326.266,116.977 L326.266,57.597 L323.247,45.055 L335.776,45.055 L338.342,56.237 L346.343,48.229 C348.456,46.113 351.022,45.055 353.891,45.055 L365.816,45.055 C368.835,45.055 371.25,45.962 373.213,48.077 L379.855,54.726 C381.968,56.841 383.176,59.41 383.176,62.432 L383.176,73.613 L370.797,73.764" id="Fill-3" fill="#191919" sketch:type="MSShapeGroup"></path>
                <path d="M445.321,116.977 L437.321,108.969 L432.339,113.956 C430.226,115.92 427.81,116.977 424.943,116.977 L399.884,116.977 C397.016,116.977 394.6,116.071 392.487,113.956 L385.845,107.307 C383.731,105.192 382.675,102.624 382.675,99.601 L382.675,87.816 C382.675,84.795 383.731,82.226 385.845,80.11 L391.732,74.217 C393.845,72.102 396.412,71.045 399.28,71.045 L434.15,71.045 L434.15,62.885 C434.15,62.13 433.849,61.374 433.244,60.77 L430.226,57.748 C429.622,57.143 428.867,56.841 428.112,56.841 L400.94,56.841 C400.034,56.841 399.28,57.143 398.827,57.748 L393.242,63.338 L385.241,55.33 L392.487,48.077 C394.6,45.962 396.865,45.055 399.884,45.055 L429.773,45.055 C432.792,45.055 435.207,46.113 437.17,48.077 L443.811,54.726 C445.925,56.841 446.982,59.561 446.982,62.432 L446.982,100.66 C446.982,101.566 447.434,102.17 447.887,102.775 L453.775,108.517 L445.321,116.977 L445.321,116.977 Z M434.15,82.226 L401.695,82.226 C400.789,82.226 400.034,82.679 399.582,83.132 L396.562,86.154 C395.959,86.759 395.506,87.514 395.506,88.27 L395.506,99.148 C395.506,100.055 395.959,100.66 396.412,101.263 L399.431,104.286 C400.034,104.891 400.94,105.192 401.544,105.192 L423.131,105.192 C423.886,105.192 424.792,104.891 425.244,104.286 L433.244,96.429 C433.849,95.824 434.15,95.221 434.15,94.162 L434.15,82.226 L434.15,82.226 Z" id="Fill-4" fill="#191919" sketch:type="MSShapeGroup"></path>
                <path d="M476.578,56.841 L476.578,116.977 L463.746,116.977 L463.746,56.841 L452.123,56.841 L452.123,45.055 L463.596,45.055 L463.596,33.271 C463.596,30.097 464.652,27.528 466.766,25.413 L472.955,19.219 C475.068,17.103 477.484,16.196 480.351,16.196 L500.429,16.196 L500.429,27.982 L482.616,27.982 C481.861,27.982 481.107,28.284 480.502,28.889 L477.484,31.91 C476.879,32.515 476.578,33.572 476.578,34.328 L476.578,45.055 L500.429,45.055 L500.429,56.841 L476.578,56.841" id="Fill-5" fill="#191919" sketch:type="MSShapeGroup"></path>
                <path d="M515.49,84.19 L515.641,99.148 C515.641,100.055 515.942,100.66 516.395,101.263 L519.414,104.286 C520.018,104.891 520.773,105.192 521.528,105.192 L548.096,105.192 C548.851,105.192 549.606,104.891 550.209,104.286 L558.36,95.975 L566.814,104.286 L557.303,113.956 C555.191,116.071 552.775,116.977 549.907,116.977 L519.867,116.977 C516.998,116.977 514.584,116.071 512.47,113.956 L505.829,107.307 C503.715,105.192 502.658,102.624 502.658,99.601 L502.658,62.432 C502.658,59.561 503.715,56.841 505.829,54.726 L512.47,48.077 C514.584,45.962 516.998,45.055 519.867,45.055 L549.756,45.055 C552.624,45.055 555.191,45.962 557.153,48.077 L563.795,54.726 C565.908,56.841 566.964,59.41 566.964,62.432 L566.964,84.19 L515.49,84.19 L515.49,84.19 Z M554.134,62.885 C554.134,62.13 553.831,61.374 553.228,60.77 L550.209,57.748 C549.606,57.143 548.851,56.841 548.096,56.841 L521.679,56.841 C520.773,56.841 520.018,57.143 519.565,57.748 L516.546,60.77 C515.942,61.374 515.641,62.13 515.49,62.885 L515.49,72.858 L554.134,72.707 L554.134,62.885 L554.134,62.885 Z" id="Fill-6" fill="#191919" sketch:type="MSShapeGroup"></path>
                <path d="M126.079,116.979 L162.044,81.014 L126.079,45.048 L117.005,54.122 L143.897,81.014 L117.005,107.906 L126.079,116.979" id="Fill-7" fill="#191919" sketch:type="MSShapeGroup"></path>
                <path d="M81.04,0.01 L45.075,35.975 L54.148,45.048 L81.04,18.157 L107.931,45.048 L117.005,35.975 L81.04,0.01" id="Fill-8" fill="#D1D1D1" sketch:type="MSShapeGroup"></path>
                <path d="M45.075,107.905 L18.183,81.014 L45.075,54.122 L36.001,45.048 L0.035,81.014 L36.001,116.979 L45.075,107.905" id="Fill-9" fill="#191919" sketch:type="MSShapeGroup"></path>
                <path d="M107.931,116.979 L81.04,143.87 L54.148,116.979 L45.075,126.053 L81.04,162.018 L117.005,126.053 L107.931,116.979" id="Fill-10" fill="#D1D1D1" sketch:type="MSShapeGroup"></path>
            </g>
        </g>
    </g>
</svg>