<?xml version="1.0" encoding="utf-8"?>
<!-- Generator: Adobe Illustrator 20.1.0, SVG Export Plug-In . SVG Version: 6.00 Build 0)  -->
<svg version="1.1" id="Lager_1" xmlns="http://www.w3.org/2000/svg" xmlns:xlink="http://www.w3.org/1999/xlink" x="0px" y="0px"
	 viewBox="0 0 704.9 207.4" style="enable-background:new 0 0 704.9 207.4;" xml:space="preserve">
<style type="text/css">
	.st0{fill:#358FCD;}
	.st1{fill:#DAE1E8;}
	.st2{fill:#282C37;}
	.st3{font-family:'Roboto-Medium';}
	.st4{font-size:119px;}
	.st5{letter-spacing:-27;}
	.st6{font-size:114px;}
	.st7{letter-spacing:-9;}
</style>
<polygon class="st0" points="348.1,188.4 567.1,188 569.4,120.7 496.4,81.1 421.3,81.1 333.6,111.2 "/>
<g>
	<g>
		<polygon points="17.7,181 17.7,17.8 68.4,17.8 68.4,138.5 130.5,138.5 130.5,181 		"/>
		<path class="st0" d="M60.9,25.3V146H123v27.5H25.2V25.3H60.9 M75.9,10.3h-15H25.2h-15v15v148.1v15h15H123h15v-15V146v-15h-15H75.9
			V25.3V10.3L75.9,10.3z"/>
	</g>
	<g>
		<path d="M194.3,181l-8.6-27.7h-37.9l-8.5,27.7H84.8l59.8-163.1h44L249,181H194.3z M172.4,110.7l-5.8-18.5l-5.7,18.5H172.4z"/>
		<path class="st0" d="M183.4,25.3l54.7,148.1h-38.4l-8.6-27.7h-48.9l-8.5,27.7H95.5l54.3-148.1H183.4 M150.8,118.2h31.8l-16-51.4
			L150.8,118.2 M193.9,10.3h-10.4h-33.6h-10.5l-3.6,9.8L81.4,168.3l-7.4,20.2h21.5h38.2h11.1l3.3-10.6l5.3-17.1h26.8l5.4,17.2
			l3.3,10.5h11h38.4h21.5l-7.5-20.2L197.5,20.1L193.9,10.3L193.9,10.3z"/>
	</g>
	<g>
		<polygon points="301.8,181 261.2,109.6 261.2,181 210.5,181 210.5,17.8 258.1,17.8 298.6,89.1 298.6,17.8 349.2,17.8 349.2,181 		
			"/>
		<path class="st0" d="M341.7,25.3v148.1h-35.5l-52.5-92.2v92.2H218V25.3h35.7l52.4,92.2V25.3H341.7 M356.7,10.3h-15h-35.6h-15v15
			v35.4l-24.4-42.9l-4.3-7.6h-8.7H218h-15v15v148.1v15h15h35.7h15v-15v-35.5l24.5,43l4.3,7.6h8.7h35.5h15v-15V25.3V10.3L356.7,10.3z
			"/>
	</g>
</g>
<g>
	<g>
		<path class="st1" d="M60.9,146H123v27.5H25.2V25.3h35.7V146z"/>
	</g>
	<g>
		<path class="st1" d="M191.2,145.8h-48.9l-8.5,27.7H95.5l54.3-148.1h33.6l54.7,148.1h-38.4L191.2,145.8z M150.8,118.2h31.8
			l-16-51.4L150.8,118.2z"/>
	</g>
	<g>
		<path class="st1" d="M341.7,173.5h-35.5l-52.5-92.2v92.2H218V25.3h35.7l52.4,92.2V25.3h35.6V173.5z"/>
	</g>
</g>
<polygon class="st0" points="184.6,10.3 215.6,10.3 210.1,44.3 200.1,44.3 181.1,12.2 "/>
<g>
	<g>
		<g>
			<polygon class="st2" points="384.2,181.6 384.2,111.9 359.2,111.9 359.2,87.6 436.5,87.6 436.5,111.9 411.2,111.9 411.2,181.6 
							"/>
			<path class="st0" d="M430,94.1v11.4h-25.3v69.7h-14v-69.7h-25V94.1H430 M443,81.1h-13h-64.3h-13v13v11.4v13h13h12v56.7v13h13h14
				h13v-13v-56.7H430h13v-13V94.1V81.1L443,81.1z"/>
		</g>
		<g>
			<path class="st2" d="M493,181.6v-94h30.4c8.3,0,15.8,1.9,22.3,5.7c6.6,3.8,11.8,9.3,15.4,16.2c3.5,6.8,5.3,14.6,5.3,23.1v4.1
				c0,8.7-1.8,16.5-5.3,23.3c-3.6,6.9-8.9,12.4-15.7,16.1c-6.6,3.7-14.2,5.6-22.6,5.6H493z M522.8,157.3c5.4,0,9.4-1.5,12.1-4.6
				c2.9-3.4,4.4-8.7,4.5-15.7v-4.4c0-7.2-1.4-12.6-4.2-16c-2.5-3.1-6.4-4.6-11.6-4.6h-3.4v45.3H522.8z"/>
			<path class="st0" d="M523.5,94.1c7.2,0,13.5,1.6,19.1,4.8c5.5,3.2,9.8,7.7,12.9,13.6c3,5.9,4.6,12.6,4.6,20.2v4.1
				c0,7.7-1.5,14.4-4.6,20.3c-3.1,5.8-7.4,10.3-13.1,13.5c-5.7,3.2-12.1,4.7-19.5,4.7h-23.3v-81H523.5 M513.6,163.8h9.2
				c7.4,0,13.1-2.3,17-6.9c4-4.6,6-11.2,6-19.9v-4.5c0-8.8-1.9-15.5-5.7-20.1c-3.8-4.6-9.4-6.9-16.6-6.9h-9.9V163.8 M523.5,81.1
				h-23.9h-13v13v81v13h13h23.3c9.5,0,18.2-2.1,25.8-6.4c7.9-4.4,14-10.7,18.3-18.8c4-7.7,6.1-16.5,6.1-26.3v-4.1
				c0-9.6-2-18.4-6-26.1c-4.2-8.1-10.2-14.4-17.9-18.9C541.5,83.3,532.9,81.1,523.5,81.1L523.5,81.1z M526.6,150.4v-31.6
				c2.3,0.5,3.1,1.4,3.5,1.9c1.8,2.2,2.8,6.4,2.8,11.8v4.4c-0.1,5.3-1.1,9.3-2.9,11.5C529.5,148.9,528.7,149.8,526.6,150.4
				L526.6,150.4z"/>
		</g>
		<g>
			<path class="st2" d="M611.1,181.6l-6.6-18.9h-22.2l-6.6,18.9h-28.7l35.5-94h21.6l35.6,94H611.1z M596,138.4l-2.6-7.4l-2.6,7.4
				H596z"/>
			<path class="st0" d="M599.7,94.1l30.7,81h-14.7l-6.6-18.9h-31.4l-6.6,18.9h-14.6l30.6-81H599.7 M581.6,144.9h23.5l-11.7-33.6
				L581.6,144.9 M608.7,81.1h-9h-12.6h-9l-3.2,8.4l-30.6,81l-6.6,17.6h18.8h14.6h9.2l3-8.7l3.5-10.1h12.9l3.6,10.2l3.1,8.7h9.2h14.7
				h18.8l-6.7-17.6l-30.7-81L608.7,81.1L608.7,81.1z"/>
		</g>
		<g>
			<polygon class="st2" points="635,181.6 635,146.9 603.4,87.6 634,87.6 648.6,117.6 663.1,87.6 693.6,87.6 662.1,146.9 
				662.1,181.6 			"/>
			<path class="st0" d="M682.8,94.1l-27.2,51.2v29.8h-14.1v-29.8l-27.2-51.2h15.6l18.6,38.4l18.6-38.4H682.8 M704.4,81.1h-21.6
				h-15.6h-8.1l-3.6,7.3l-7,14.3l-7-14.3l-3.6-7.3h-8.1h-15.6h-21.6l10.2,19.1l25.7,48.4v26.6v13h13h14.1h13v-13v-26.6l25.6-48.4
				L704.4,81.1L704.4,81.1z"/>
		</g>
	</g>
</g>
<g>
	<text transform="matrix(1 0 0 1 356.9621 175.1318)"><tspan x="0" y="0" class="st2 st3 st4 st5">.</tspan><tspan x="6.2" y="0" class="st2 st3 st6 st7">TODAY</tspan></text>
</g>
<polygon class="st0" points="361.3,11.3 361.3,77 528.7,77 368,71.2 "/>
<polygon class="st0" points="672.3,188.3 672.3,152.3 704.9,84.9 677.3,152.6 "/>
<polygon class="st0" points="6.3,67.8 6.3,6 74.1,6 0,0 "/>
<polygon class="st0" points="6.7,147.3 6.7,193 132.7,193 0,200.8 "/>
</svg>
